<?xml version="1.0" encoding="UTF-8" standalone="no"?>
<svg
   xmlns:dc="http://purl.org/dc/elements/1.1/"
   xmlns:cc="http://creativecommons.org/ns#"
   xmlns:rdf="http://www.w3.org/1999/02/22-rdf-syntax-ns#"
   xmlns:svg="http://www.w3.org/2000/svg"
   xmlns="http://www.w3.org/2000/svg"
   id="svg2"
   viewBox="0 0 356.28 356.27"
   version="1.1">
  <metadata
     id="metadata35">
    <rdf:RDF>
      <cc:Work
         rdf:about="">
        <dc:format>image/svg+xml</dc:format>
        <dc:type
           rdf:resource="http://purl.org/dc/dcmitype/StillImage" />
        <dc:title></dc:title>
      </cc:Work>
    </rdf:RDF>
  </metadata>
  <defs
     id="defs4">
    <linearGradient
       x1="30.859"
       y1="-228.27"
       x2="354.75"
       gradientUnits="userSpaceOnUse"
       y2="-228.27"
       id="a">
      <stop
         id="stop7"
         offset="0"
         stop-opacity=".090141"
         stop-color="#fff" />
      <stop
         id="stop9"
         offset="1"
         stop-opacity=".46197"
         stop-color="#fff" />
    </linearGradient>
    <style
       id="style11"
       type="text/css">
      @import url('https://fonts.googleapis.com/css?family=Courgette');
    </style>
  </defs>
  <g
     id="g13"
     fill="#edd400"
     stroke="#000"
     transform="translate(-14.641 406.55)"
     fill-opacity=".98599">
    <path
       id="path15"
       fill="#00f"
       stroke-width="2.5"
       stroke="#000"
       fill-opacity="1"
       d="m168.7-57.065c-40.142-1.5847-82.136-14.278-109.74-44.902-28.601-30.753-37.717-74.147-37.882-114.98-0.97773-40.968 1.594-84.544 24.313-120.05 20.796-33.971 58.595-54.361 97.335-59.968 29.877-4.2978 60.35-4.0774 90.361-1.3439 39.418 3.9129 79.143 21.505 102.52 54.528 24.947 33.991 29.761 77.679 28.98 118.64 0.47971 40.949-6.22 84.619-32.868 117.27-25.247 31.944-65.98 47.335-105.65 50.162-19.07 1.518-38.264 1.3859-57.368 0.63932z"
       stroke-linejoin="round" />
  </g>
  <g
     id="g17"
     transform="translate(-14.641 406.55)"
     fill="#47a67d"
     fill-opacity=".98599">
    <path
       id="path19"
       d="m184.19-390.28c-41.314 0.23878-85.887 8.8774-115.5 39.688-26.362 27.196-36.78 65.845-37.231 102.91-1.9274 41.743-0.35141 86.561 22.562 122.84 15.805 25.369 41.807 43.508 70.661 50.754 37.631 10.404 77.493 8.826 115.91 4.6919 36.901-5.6687 73.513-24.402 92.421-57.732 22.606-37.531 22.811-82.86 21.11-125.36-1.7508-36.259-12.434-74.128-39.062-99.969-27.095-26.721-65.988-36.32-103.28-37.466-9.1917-0.44824-18.397-0.362-27.596-0.3469z"
       fill="url(#a)"
       fill-opacity="1" />
  </g>
  <g
     style="fill:none;stroke:#ffffff;stroke-width:4;stroke-linejoin:round"
     id="g21"
     transform="matrix(3.2,0,0,3.2,-77.860001,60)">
    <polyline
       id="polyline23"
       points="55 10 38 10 38 20 53 20 53 30 33 30" />
    <polyline
       id="polyline25"
       points="97 30 85 30 75 10 60 10 60 30 75 30 85 10 100 10 100 40 80 40" />
    <polyline
       id="polyline27"
       points="127 30 107 30 107 10 122 10 122 20 110 20" />
  </g>
  <text
     id="text29"
     style="font-style:oblique;font-size:100px;font-family:Courgette, serif;fill:#d3d3d3"
     y="280"
     x="339.23865">
    <tspan
       style="text-anchor:middle"
       id="tspan31"
       x="179.23863">math</tspan>
  </text>
</svg>
