<?xml version="1.0" encoding="UTF-8" standalone="no"?>
<svg xmlns:rdf="http://www.w3.org/1999/02/22-rdf-syntax-ns#" xmlns="http://www.w3.org/2000/svg" version="1.0" xmlns:cc="http://creativecommons.org/ns#" xmlns:dc="http://purl.org/dc/elements/1.1/" viewBox="0 0 400 400">
<rect rx="10" ry="10" height="400" width="400" y="0" x="0" fill="blue"/>
<g transform="matrix(2.5143 0 0 2.5959 -3731 -5840.6)">
<g fill="#fff">
<path opacity="0.99" d="m1332.3 1792.4a7.3256 7.3256 0 0 1 -7.3256 7.3257 7.3256 7.3256 0 0 1 -7.3257 -7.3257 7.3256 7.3256 0 0 1 7.3257 -7.3256 7.3256 7.3256 0 0 1 7.3256 7.3256z" transform="matrix(.96726 0 0 .96726 235.7 548.05)"/>
<path opacity="0.99" d="m1332.3 1792.4a7.3256 7.3256 0 0 1 -7.3256 7.3257 7.3256 7.3256 0 0 1 -7.3257 -7.3257 7.3256 7.3256 0 0 1 7.3257 -7.3256 7.3256 7.3256 0 0 1 7.3256 7.3256z" transform="matrix(.96726 0 0 .96726 308.75 539.35)"/>
<path opacity="0.99" d="m1332.3 1792.4a7.3256 7.3256 0 0 1 -7.3256 7.3257 7.3256 7.3256 0 0 1 -7.3257 -7.3257 7.3256 7.3256 0 0 1 7.3257 -7.3256 7.3256 7.3256 0 0 1 7.3256 7.3256z" transform="matrix(1.2054 0 0 1.2054 -25.197 182.2)"/>
<path opacity="0.99" d="m1332.3 1792.4a7.3256 7.3256 0 0 1 -7.3256 7.3257 7.3256 7.3256 0 0 1 -7.3257 -7.3257 7.3256 7.3256 0 0 1 7.3257 -7.3256 7.3256 7.3256 0 0 1 7.3256 7.3256z" transform="matrix(.79537 0 0 .79537 449.34 925.45)"/>
<path opacity="0.99" d="m1332.3 1792.4a7.3256 7.3256 0 0 1 -7.3256 7.3257 7.3256 7.3256 0 0 1 -7.3257 -7.3257 7.3256 7.3256 0 0 1 7.3257 -7.3256 7.3256 7.3256 0 0 1 7.3256 7.3256z" transform="matrix(.79537 0 0 .79537 499.3 973.25)"/>
<path opacity="0.99" d="m1332.3 1792.4a7.3256 7.3256 0 0 1 -7.3256 7.3257 7.3256 7.3256 0 0 1 -7.3257 -7.3257 7.3256 7.3256 0 0 1 7.3257 -7.3256 7.3256 7.3256 0 0 1 7.3256 7.3256z" transform="matrix(.79537 0 0 .79537 556.3 956.69)"/>
<path opacity="0.99" d="m1332.3 1792.4a7.3256 7.3256 0 0 1 -7.3256 7.3257 7.3256 7.3256 0 0 1 -7.3257 -7.3257 7.3256 7.3256 0 0 1 7.3257 -7.3256 7.3256 7.3256 0 0 1 7.3256 7.3256z" transform="matrix(.79537 0 0 .79537 581 902.91)"/>
<path opacity="0.99" d="m1332.3 1792.4a7.3256 7.3256 0 0 1 -7.3256 7.3257 7.3256 7.3256 0 0 1 -7.3257 -7.3257 7.3256 7.3256 0 0 1 7.3257 -7.3256 7.3256 7.3256 0 0 1 7.3256 7.3256z" transform="matrix(.62348 0 0 .62348 800.66 1180.7)"/>
<path opacity="0.99" d="m1332.3 1792.4a7.3256 7.3256 0 0 1 -7.3256 7.3257 7.3256 7.3256 0 0 1 -7.3257 -7.3257 7.3256 7.3256 0 0 1 7.3257 -7.3256 7.3256 7.3256 0 0 1 7.3256 7.3256z" transform="matrix(.62348 0 0 .62348 766.33 1140)"/>
<path opacity="0.99" d="m1332.3 1792.4a7.3256 7.3256 0 0 1 -7.3256 7.3257 7.3256 7.3256 0 0 1 -7.3257 -7.3257 7.3256 7.3256 0 0 1 7.3257 -7.3256 7.3256 7.3256 0 0 1 7.3256 7.3256z" transform="matrix(.62348 0 0 .62348 664.75 1230.2)"/>
<path opacity="0.99" d="m1332.3 1792.4a7.3256 7.3256 0 0 1 -7.3256 7.3257 7.3256 7.3256 0 0 1 -7.3257 -7.3257 7.3256 7.3256 0 0 1 7.3257 -7.3256 7.3256 7.3256 0 0 1 7.3256 7.3256z" transform="matrix(.62348 0 0 .62348 701.59 1267.5)"/>
<path opacity="0.99" d="m1332.3 1792.4a7.3256 7.3256 0 0 1 -7.3256 7.3257 7.3256 7.3256 0 0 1 -7.3257 -7.3257 7.3256 7.3256 0 0 1 7.3257 -7.3256 7.3256 7.3256 0 0 1 7.3256 7.3256z" transform="matrix(.79537 0 0 .79537 440.41 869.81)"/>
<path opacity="0.99" d="m1332.3 1792.4a7.3256 7.3256 0 0 1 -7.3256 7.3257 7.3256 7.3256 0 0 1 -7.3257 -7.3257 7.3256 7.3256 0 0 1 7.3257 -7.3256 7.3256 7.3256 0 0 1 7.3256 7.3256z" transform="matrix(.79537 0 0 .79537 484.51 829.4)"/>
<path opacity="0.99" d="m1332.3 1792.4a7.3256 7.3256 0 0 1 -7.3256 7.3257 7.3256 7.3256 0 0 1 -7.3257 -7.3257 7.3256 7.3256 0 0 1 7.3257 -7.3256 7.3256 7.3256 0 0 1 7.3256 7.3256z" transform="matrix(.62348 0 0 .62348 699.01 1196.6)"/>
<path opacity="0.99" d="m1332.3 1792.4a7.3256 7.3256 0 0 1 -7.3256 7.3257 7.3256 7.3256 0 0 1 -7.3257 -7.3257 7.3256 7.3256 0 0 1 7.3257 -7.3256 7.3256 7.3256 0 0 1 7.3256 7.3256z" transform="matrix(.62348 0 0 .62348 749.03 1256.4)"/>
</g>
<g stroke="#fff" fill="none">
<g stroke-width="8">
<path d="m1590 2271.6l-18.6 72.7"/>
<path d="m1589.1 2273.5l-72.6 8.5"/>
<path d="m1571.3 2343.4l-54.7-61.8"/>
</g>
<path d="m1571.3 2343.9l-18.1 55.9" stroke-width="6"/>
<g stroke-width="4">
<path d="m1516.4 2281.3l21-24.3"/>
<path d="m1493.9 2295.5l21.8-14.4"/>
<path d="m1503 2350.6l13.4-69.9"/>
</g>
<g stroke-width="6">
<path d="m1552.2 2398.5l-49.5-46.5"/>
<path d="m1610.1 2381.3l-58.1 17"/>
<path d="m1634.2 2328.4l-24.1 53.1"/>
<path d="m1570.5 2343.4l62.9-14.6"/>
<path d="m1590.1 2273l43.2 55.2"/>
<path d="m1501.8 2350.6l67-7.2"/>
</g>
<g stroke-width="4">
<path d="m1551.4 2398.1l-24.4-13.2"/>
<path d="m1489.4 2347.3l36.3 37.3"/>
<path d="m1493.2 2295.9l-2.7 51.4"/>
<path d="m1537.4 2254.9l54.1 1.8"/>
<path d="m1627.2 2298.5l-34.3-41.9"/>
<path d="m1635.5 2328.2l-9-30.1"/>
<path d="m1589.5 2272.3l3.2-15.3"/>
<path d="m1503.7 2351.2l-14.2-2.7"/>
</g>
<g stroke-width="2">
<path d="m1527 2385.4l46.7-11.4"/>
<path d="m1574.9 2373.9l33.6 7.3"/>
<path d="m1492.5 2295.9l61.2-6.8"/>
<path d="m1553.7 2287.7l36.4-13.5"/>
</g>
</g>
<path opacity="0.99" d="m1332.3 1792.4a7.3256 7.3256 0 0 1 -7.3256 7.3257 7.3256 7.3256 0 0 1 -7.3257 -7.3257 7.3256 7.3256 0 0 1 7.3257 -7.3256 7.3256 7.3256 0 0 1 7.3256 7.3256z" transform="matrix(.62348 0 0 .62348 726.87 1170.9)" fill="#fff"/>
<path opacity="0.99" d="m1332.3 1792.4a7.3256 7.3256 0 0 1 -7.3256 7.3257 7.3256 7.3256 0 0 1 -7.3257 -7.3257 7.3256 7.3256 0 0 1 7.3257 -7.3256 7.3256 7.3256 0 0 1 7.3256 7.3256z" transform="matrix(.58339 0 0 .58339 837.23 1298.2)" fill="#fff"/>
<g stroke="#fff" stroke-width="2" fill="none">
<path d="m1609.7 2343.7l16.4-46"/>
<path d="m1609.4 2381.5l0.6-38.8"/>
<path d="m1502.2 2350.1l23.4-36"/>
<path d="m1537.9 2255.4l-13 58.7"/>
</g>
</g>
</svg>
