<?xml version="1.0" encoding="UTF-8" standalone="no"?>
<svg xmlns:rdf="http://www.w3.org/1999/02/22-rdf-syntax-ns#" xmlns="http://www.w3.org/2000/svg" version="1.1" xmlns:cc="http://creativecommons.org/ns#" xmlns:xlink="http://www.w3.org/1999/xlink" viewBox="0 0 356.28 356.27" xmlns:dc="http://purl.org/dc/elements/1.1/">
<defs>
<linearGradient id="a" y2="-228.27" gradientUnits="userSpaceOnUse" x2="354.75" y1="-228.27" x1="30.859">
<stop stop-color="#fff" stop-opacity=".090141" offset="0"/>
<stop stop-color="#fff" stop-opacity=".46197" offset="1"/>
</linearGradient>
</defs>
<g fill-opacity=".98599" transform="translate(-14.641 406.55)" stroke="#000" fill="#edd400">
<path stroke-linejoin="round" d="m168.7-57.065c-40.142-1.5847-82.136-14.278-109.74-44.902-28.601-30.753-37.717-74.147-37.882-114.98-0.97773-40.968 1.594-84.544 24.313-120.05 20.796-33.971 58.595-54.361 97.335-59.968 29.877-4.2978 60.35-4.0774 90.361-1.3439 39.418 3.9129 79.143 21.505 102.52 54.528 24.947 33.991 29.761 77.679 28.98 118.64 0.47971 40.949-6.22 84.619-32.868 117.27-25.247 31.944-65.98 47.335-105.65 50.162-19.07 1.518-38.264 1.3859-57.368 0.63932z" fill-opacity="1" stroke="#000" stroke-width="2.5" fill="#00f"/>
</g>
<g fill-opacity=".98599" fill="#47a67d" transform="translate(-14.641 406.55)">
<path fill-opacity="1" fill="url(#a)" d="m184.19-390.28c-41.314 0.23878-85.887 8.8774-115.5 39.688-26.362 27.196-36.78 65.845-37.231 102.91-1.9274 41.743-0.35141 86.561 22.562 122.84 15.805 25.369 41.807 43.508 70.661 50.754 37.631 10.404 77.493 8.826 115.91 4.6919 36.901-5.6687 73.513-24.402 92.421-57.732 22.606-37.531 22.811-82.86 21.11-125.36-1.7508-36.259-12.434-74.128-39.062-99.969-27.095-26.721-65.988-36.32-103.28-37.466-9.1917-0.44824-18.397-0.362-27.596-0.3469z"/>
</g>
<g stroke-linejoin="round" transform="matrix(3.6013 0 0 3.6013 -109.96 88.104)" stroke="#fff" stroke-width="4" fill="none">
<polyline points="55 10 38 10 38 20 53 20 53 30 33 30"/>
<polyline points="97 30 85 30 75 10 60 10 60 30 75 30 85 10 100 10 100 40 80 40"/>
<polyline points="127 30 107 30 107 10 122 10 122 20 110 20"/>
</g>
</svg>
