<?xml version="1.0" encoding="UTF-8" standalone="no"?>
<svg xmlns="http://www.w3.org/2000/svg" height="420pt" width="415pt" version="1.1" viewBox="0 0 415 420">
<rect width="100%" height="100%" fill="white"/>
<g transform="matrix(0,1,1,0,-2.498,2.498)" stroke-linejoin="round" stroke-width="20" fill="none">
<path d="m374.74 108.69c-16.93-27.345-41.27-49.525-70.58-64.297-29.32-14.772-62.57-21.623-96.42-19.861-33.84 1.762-67.1 12.075-96.41 29.899-29.314 17.824-53.66 42.538-70.583 71.649"  stroke="#5f5fff" />
<path d="m374.74 294.4c16.923-29.11 25.834-61.603 25.834-94.199s-8.9112-64.161-25.834-91.509"  stroke="#5f5fff" />
<path d="m207.74 395.95c33.846-1.762 67.103-12.075 96.414-29.899 29.312-17.824 53.657-42.538 70.58-71.648"  stroke="#5f5fff" />
<path d="m40.747 311.79c16.923 27.348 41.269 49.527 70.58 64.3 29.312 14.772 62.568 21.623 96.414 19.861"  stroke="#5f5fff" />
<path d="m40.747 126.08c-16.923 29.11-25.834 61.603-25.834 94.199s8.9112 64.161 25.834 91.509"  stroke="#5f5fff" />
<path d="m175.6 150.01c-44.27-22.31-83.385-37.38-108.67-41.87-25.281-4.49-34.707 1.97-26.187 17.94"  stroke="#00f" />
<path d="m175.6 150.01c0 49.234 3.3883 102.85 9.413 148.96 6.0248 46.105 14.205 81.014 22.725 96.981"  stroke="#00f" />
<path d="m374.74 294.4c-4.2203-7.9093-12.719-17.919-25.01-29.455-12.291-11.537-28.136-24.376-46.626-37.784-18.491-13.408-39.268-27.122-61.144-40.36-21.875-13.237-44.423-25.74-66.352-36.792"  stroke="#00f"  />
<path d="m374.74 108.69c-8.52-15.965-34.31-20.589-71.64-12.844-37.33 7.744-83.22 27.244-127.5 54.164"  stroke="#00f" />
<path d="m175.6 150.01c-44.27 26.92-83.385 59.12-108.67 89.45-25.277 30.32-34.703 56.36-26.183 72.33"  stroke="#00f" />
</g>
</svg>
